<svg id="Layer_1" data-name="Layer 1" xmlns="http://www.w3.org/2000/svg" xmlns:xlink="http://www.w3.org/1999/xlink" viewBox="0 0 1024 1024"><defs><style>.cls-1{fill:url(#linear-gradient);}</style><linearGradient id="linear-gradient" x1="512" y1="4.5" x2="512" y2="1019.5" gradientUnits="userSpaceOnUse"><stop offset="0" stop-color="#fdc70c"/><stop offset="0.25" stop-color="#f3903f"/><stop offset="0.67" stop-color="#ed683c"/><stop offset="1" stop-color="#e93e3a"/></linearGradient></defs><title>Artboard 1</title><path class="cls-1" d="M1019.5,512C1019.5,231.72,792.28,4.5,512,4.5,341,4.5,189.73,89.09,97.79,218.71h510.1V287h-169L797.54,743.24V218.71h72V872.16A505.92,505.92,0,0,0,1019.5,512ZM388.16,336.7v536.5H314.3V287H94.57V223.29A505.16,505.16,0,0,0,4.5,512c0,280.28,227.22,507.5,507.5,507.5A505.86,505.86,0,0,0,868.48,873.21H810.63Z"/></svg>